HIERARCHY
ROOT Hips
{
	OFFSET 0.00000 0.00000 0.00000
	CHANNELS 6 Xposition Yposition Zposition Zrotation Yrotation Xrotation 
	JOINT LHipJoint
	{
		OFFSET 0 0 0
		CHANNELS 3 Zrotation Yrotation Xrotation
		JOINT LeftHip
		{
			OFFSET 1.62329 -1.80800 0.67318
			CHANNELS 3 Zrotation Yrotation Xrotation
			JOINT LeftKnee
			{
				OFFSET 2.57139 -7.06484 0.00000
				CHANNELS 3 Zrotation Yrotation Xrotation
				JOINT LeftAnkle
				{
					OFFSET 2.52017 -6.92413 0.00000
					CHANNELS 3 Zrotation Yrotation Xrotation
					JOINT LeftToe
					{
						OFFSET 0.23295 -0.64001 2.10214
						CHANNELS 3 Zrotation Yrotation Xrotation
						End Site
						{
							OFFSET 0.00000 -0.00000 1.10139
						}
					}
				}
			}
		}
	}
	JOINT RHipJoint
	{
		OFFSET 0 0 0
		CHANNELS 3 Zrotation Yrotation Xrotation
		JOINT RightHip
		{
			OFFSET -1.48061 -1.80800 0.67318
			CHANNELS 3 Zrotation Yrotation Xrotation
			JOINT RightKnee
			{
				OFFSET -2.63258 -7.23296 0.00000
				CHANNELS 3 Zrotation Yrotation Xrotation
				JOINT RightAnkle
				{
					OFFSET -2.54779 -7.00000 0.00000
					CHANNELS 3 Zrotation Yrotation Xrotation
					JOINT RightToe
					{
						OFFSET -0.23067 -0.63376 2.12161
						CHANNELS 3 Zrotation Yrotation Xrotation
						End Site
						{
							OFFSET -0.00000 -0.00000 1.11000
						}
					}
				}
			}
		}
	}
	JOINT lowerback
	{
		OFFSET 0 0 0
		CHANNELS 3 Zrotation Yrotation Xrotation
		JOINT Chest
		{
			OFFSET -0.02108 2.07573 -0.16981
			CHANNELS 3 Zrotation Yrotation Xrotation
			JOINT Chest2
			{
				OFFSET 0.05070 2.08439 -0.03141
				CHANNELS 3 Zrotation Yrotation Xrotation
				JOINT lowerneck
				{
					OFFSET 0 0 0
					CHANNELS 3 Zrotation Yrotation Xrotation
					JOINT Neck
					{
						OFFSET -0.10731 1.60408 0.31370
						CHANNELS 3 Zrotation Yrotation Xrotation
						JOINT Head
						{
							OFFSET 0.08411 1.65679 -0.30822
							CHANNELS 3 Zrotation Yrotation Xrotation
							End Site
							{
								OFFSET 0.03911 1.69149 -0.14146
							}
						}
					}
				}
				JOINT LeftCollar
				{
					OFFSET 0 0 0
					CHANNELS 3 Zrotation Yrotation Xrotation
					JOINT LeftShoulder
					{
						OFFSET 3.52315 0.73219 -0.54694
CHANNELS 3 Zrotation Xrotation Yrotation
						JOINT LeftElbow
						{
OFFSET 0 -5.324620 -0.000000
CHANNELS 3 Zrotation Xrotation Yrotation
							JOINT LeftWrist
							{
OFFSET 0 -3.484020 -0.000000
CHANNELS 3 Zrotation Xrotation Yrotation
								JOINT lhand
								{
									OFFSET 0 0 0
CHANNELS 3 Zrotation Xrotation Yrotation
									JOINT LFingers
									{
OFFSET 0 -0.572480 -0.000000
CHANNELS 3 Zrotation Xrotation Yrotation
										End Site
										{
OFFSET 0 -0.461540 -0.000000
										}
									}
								}
								JOINT LThumb
								{
OFFSET 0 0.000000 0.000000
CHANNELS 3 Zrotation Xrotation Yrotation
									End Site
									{
OFFSET 0 -0.468590 0.468590
									}
								}
							}
						}
					}
				}
				JOINT RightCollar
				{
					OFFSET 0 0 0
					CHANNELS 3 Zrotation Yrotation Xrotation
					JOINT RightShoulder
					{
						OFFSET -3.41766 0.93592 -0.10019
CHANNELS 3 Zrotation Xrotation Yrotation
						JOINT RightElbow
						{
OFFSET 0 -5.335890 -0.000000
CHANNELS 3 Zrotation Xrotation Yrotation
							JOINT RightWrist
							{
OFFSET 0 -3.641340 -0.000000
CHANNELS 3 Zrotation Xrotation Yrotation
								JOINT rhand
								{
									OFFSET 0 0 0
CHANNELS 3 Zrotation Xrotation Yrotation
									JOINT RFingers
									{
OFFSET 0 -0.734810 -0.000000
CHANNELS 3 Zrotation Xrotation Yrotation
										End Site
										{
OFFSET 0 -0.592420 -0.000000
										}
									}
								}
								JOINT RThumb
								{
OFFSET 0 0.000000 0.000000
CHANNELS 3 Zrotation Xrotation Yrotation
									End Site
									{
OFFSET 0 -0.601470 0.601470
									}
								}
							}
						}
					}
				}
			}
		}
	}
}
MOTION
Frames: 11
Frame Time: 0.008333333333333333
0.032600 17.940000 -4.111200 0.002900 -12.082300 17.716900 0.000000 0.000000 0.000000 -19.876600 -6.533600 -33.499100 1.502200 7.741400 21.931400 0.058800 0.853900 -4.977100 0.104900 -2.088500 -5.750300 0.000000 0.000000 0.000000 15.245400 5.879700 -26.754900 -3.306700 -11.175700 32.874700 -1.207300 0.630900 -20.579000 -0.000600 0.152800 -0.419800 -5.272600 0.027300 8.211200 1.093800 -0.370100 2.443500 4.139900 -0.184100 -2.025400 -14.167000 -8.136700 -14.305100 11.174900 -9.713500 10.390400 4.861400 -4.453400 6.763200 -0.000000 -0.000000 0.000000 4.013700 -1.049400 -55.726600 24.178200 -35.352100 7.809400 17.686700 6.557200 -22.636200 0.000000 0.000000 0.000000 -7.125000 0.000000 0.000000 -11.750100 53.236500 2.406800 -0.000000 -0.000000 0.000000 -3.933400 -3.233200 53.824500 -21.412000 -32.306100 -6.268700 -30.837000 28.213400 -3.884400 0.000000 0.000000 0.000000 7.125000 0.000000 -0.000000 -3.170700 25.457300 -1.502100
-0.140398 17.932370 -4.276983 -0.147881 -11.535815 18.502140 0.000000 0.000000 0.000000 -18.135454 -8.418292 -34.012552 1.437043 7.579182 21.443046 0.017758 2.445047 -4.507444 0.114631 -2.181810 -6.008301 0.000000 0.000000 0.000000 16.345442 6.612739 -26.520104 -2.907511 -10.543732 30.756076 -1.349373 -0.208242 -22.048822 -0.007794 -0.565430 1.553840 -4.827521 0.031213 8.273448 1.286514 -0.326088 2.484525 4.085131 -0.163651 -2.024653 -13.692392 -7.830015 -14.645086 10.832231 -9.240579 9.629668 4.725089 -4.222055 6.474087 0.000000 0.000000 0.000000 3.908935 -1.410561 -55.922681 24.137901 -35.309752 7.786127 19.108529 6.934212 -22.206767 0.000000 0.000000 0.000000 -7.125000 0.000000 0.000000 -10.153739 53.061351 2.032709 0.000000 0.000000 0.000000 -3.912367 -3.485661 54.742085 -20.911756 -31.725091 -6.003467 -29.981222 28.330492 -3.618465 0.000000 0.000000 0.000000 7.125000 0.000000 0.000000 -2.540797 25.803203 -1.182669
-0.323914 17.934641 -4.443887 -0.312225 -11.509684 18.681297 0.000000 0.000000 0.000000 -16.400452 -9.921494 -33.874722 1.394776 7.471521 21.120043 -0.027498 4.117122 -4.570752 0.151894 -2.511398 -6.921249 0.000000 0.000000 0.000000 17.429764 7.189391 -26.188500 -2.668395 -10.137752 29.423989 -1.480320 -0.591355 -23.230023 -0.083792 -1.867130 5.138571 -4.608150 0.262047 8.781092 1.468362 -0.020302 2.547220 4.123541 -0.007052 -2.273689 -13.323433 -7.514471 -15.175693 10.573132 -8.750174 9.173908 4.630953 -3.974471 6.325566 0.000000 0.000000 0.000000 3.755106 -1.724425 -56.390834 23.915575 -35.074843 7.658017 18.826747 6.350427 -22.194091 0.000000 0.000000 0.000000 -7.125000 0.000000 0.000000 -10.429829 52.997795 2.070487 0.000000 0.000000 0.000000 -4.308309 -3.502983 55.590743 -20.793429 -31.586435 -5.941338 -29.100199 29.654612 -4.249697 0.000000 0.000000 0.000000 7.125000 0.000000 0.000000 -1.845849 25.118779 -0.888175
-0.513136 17.922086 -4.599950 -0.260332 -11.197427 18.632281 0.000000 0.000000 0.000000 -15.049869 -11.160492 -33.702777 1.362245 7.387380 20.868319 -0.073441 5.402430 -4.608787 0.159659 -2.574101 -7.095217 0.000000 0.000000 0.000000 18.069398 7.509709 -26.182724 -2.611393 -10.037648 29.098741 -1.454638 -0.733401 -23.080692 -0.058803 -1.564728 4.304235 -4.313345 0.354189 8.783561 1.542394 0.129861 2.595761 4.017635 0.065262 -2.240796 -12.853847 -7.161152 -15.611889 10.533128 -8.256419 8.364132 4.595436 -3.709999 6.058809 0.000000 0.000000 0.000000 3.969907 -2.206854 -57.428864 23.731206 -34.878764 7.552287 18.363251 6.125680 -22.527356 0.000000 0.000000 0.000000 -7.125000 0.000000 0.000000 -11.027691 53.250544 2.259686 0.000000 0.000000 0.000000 -4.614386 -4.197128 56.691232 -20.044701 -30.695836 -5.554252 -29.915277 28.495173 -5.189494 0.000000 0.000000 0.000000 7.125000 0.000000 0.000000 -2.403057 23.998651 -1.218989
-0.704244 17.914107 -4.713953 -0.279462 -10.734459 17.624018 0.000000 0.000000 0.000000 -14.067625 -11.808553 -32.425094 1.338415 7.325186 20.682358 -0.106673 6.271823 -4.879821 0.174720 -2.692839 -7.424737 0.000000 0.000000 0.000000 19.087962 6.641092 -25.653634 -2.655900 -10.116056 29.353361 -1.427577 -0.301649 -22.711652 -0.053541 -1.492794 4.105920 -3.892359 0.323781 8.728755 1.677379 0.132119 2.626235 3.919157 0.063755 -2.179470 -12.701701 -6.857160 -16.299864 10.835450 -7.838838 8.419211 4.709119 -3.460381 6.147978 0.000000 0.000000 0.000000 5.099321 -3.775809 -60.091838 22.758024 -33.823135 7.003201 14.385333 6.432967 -22.089967 0.000000 0.000000 0.000000 -7.125000 0.000000 0.000000 -14.773592 52.111767 2.634098 0.000000 0.000000 0.000000 -5.407488 -5.594714 59.050323 -18.997017 -29.414871 -5.029390 -29.280460 25.083257 -5.432785 0.000000 0.000000 0.000000 7.125000 0.000000 0.000000 -1.918195 23.757551 -0.983579
-0.909574 17.891174 -4.784100 0.133028 -9.846336 15.745501 0.000000 0.000000 0.000000 -13.953204 -11.995540 -30.569130 1.356496 7.372559 20.823977 -0.113562 6.444529 -4.953856 0.216687 -2.996462 -8.268953 0.000000 0.000000 0.000000 19.728816 5.871734 -24.132622 -2.746095 -10.272169 29.862760 -1.493995 -0.417843 -23.274363 -0.060047 -1.580066 4.346451 -3.796894 0.197029 8.243766 1.705085 -0.009105 2.672635 3.905571 -0.014689 -1.849478 -12.370273 -6.762794 -17.257756 11.048202 -7.721903 8.690872 4.725161 -3.346484 6.375034 0.000000 0.000000 0.000000 7.895254 -6.438007 -64.221036 22.573747 -33.619348 6.900849 9.381777 6.252531 -19.411783 0.000000 0.000000 0.000000 -7.125000 0.000000 0.000000 -18.374540 48.738949 1.743567 0.000000 0.000000 0.000000 -6.902738 -7.783160 62.171585 -18.195471 -28.406704 -4.641919 -25.573184 20.461009 -7.836307 0.000000 0.000000 0.000000 7.125000 0.000000 0.000000 0.913232 21.306488 0.522774
-1.107020 17.864184 -4.823348 0.422468 -8.873580 13.139799 0.000000 0.000000 0.000000 -14.410523 -10.889815 -28.476054 1.441599 7.590546 21.477217 -0.078524 5.538007 -4.634302 0.314219 -3.603352 -9.963345 0.000000 0.000000 0.000000 20.553197 4.629178 -21.664479 -2.814673 -10.388813 30.245249 -1.570318 -0.518156 -23.895241 -0.098660 -2.024424 5.573277 -3.347865 0.092095 7.454651 1.613696 -0.089353 2.961174 3.557613 -0.073779 -1.108732 -12.098931 -6.809869 -19.067996 11.521599 -7.739188 9.029135 4.810869 -3.249052 6.795243 0.000000 0.000000 0.000000 12.481230 -10.765911 -65.938334 23.140918 -34.242371 7.217509 8.043922 11.080669 -13.979152 0.000000 0.000000 0.000000 -7.125000 0.000000 0.000000 -17.588203 43.372823 -0.730241 0.000000 0.000000 0.000000 -9.651788 -10.922269 62.482810 -18.163915 -28.366449 -4.626882 -23.348152 21.256619 -9.014406 0.000000 0.000000 0.000000 7.125000 0.000000 0.000000 2.562016 20.180964 1.522186
-1.278019 17.835111 -4.822498 0.850914 -8.083749 10.350667 0.000000 0.000000 0.000000 -14.920808 -10.130877 -26.012538 1.539867 7.833591 22.209786 -0.052184 4.983985 -4.912884 0.293241 -3.482205 -9.624335 0.000000 0.000000 0.000000 21.014644 3.234606 -18.939029 -2.895729 -10.524311 30.691807 -1.706187 -0.293358 -24.825430 -0.101382 -2.052770 5.651623 -2.956861 0.057157 6.217114 1.532563 -0.077535 2.825079 3.245859 -0.072524 -0.566058 -12.026766 -6.659909 -20.858777 11.781362 -7.512584 10.535934 4.908588 -3.047109 7.561981 0.000000 0.000000 0.000000 19.035198 -15.857997 -63.273909 25.160151 -36.367028 8.384729 11.173963 11.548345 -14.208804 0.000000 0.000000 0.000000 -7.125000 0.000000 0.000000 -14.904526 43.932533 -0.402202 0.000000 0.000000 0.000000 -14.680110 -15.501866 59.614757 -18.938364 -29.341870 -5.000612 -24.715811 21.250925 -7.800661 0.000000 0.000000 0.000000 7.125000 0.000000 0.000000 1.535145 21.404837 0.869352
-1.431582 17.795861 -4.798075 1.086293 -8.034183 7.123016 0.000000 0.000000 0.000000 -15.371722 -8.673643 -23.351275 1.722142 8.261454 23.511028 -0.016383 4.286164 -5.427225 0.405677 -4.088734 -11.326506 0.000000 0.000000 0.000000 21.525123 1.809571 -15.428389 -2.890250 -10.515250 30.661913 -1.805236 -0.161712 -25.492525 -0.097845 -2.017193 5.553203 -2.796034 0.213304 5.554510 1.605841 0.155609 2.386427 3.214858 0.053413 -0.667963 -11.905476 -6.407081 -21.984121 11.584359 -7.182332 12.279604 4.879520 -2.855906 8.272196 0.000000 0.000000 0.000000 28.198197 -21.823826 -54.838270 27.744063 -38.878217 9.963081 11.939621 9.125331 -15.952091 0.000000 0.000000 0.000000 -7.125000 0.000000 0.000000 -14.759037 45.729913 0.273739 0.000000 0.000000 0.000000 -22.791049 -22.250396 53.527316 -20.502441 -31.242251 -5.790051 -21.795988 17.796439 -6.337854 0.000000 0.000000 0.000000 7.125000 0.000000 0.000000 3.644995 23.161654 1.920781
-1.558744 17.760770 -4.742891 1.240138 -8.410935 4.102806 0.000000 0.000000 0.000000 -15.579522 -7.442516 -20.744120 1.946751 8.754188 25.029432 0.023050 3.951226 -6.520685 0.411435 -4.117376 -11.407076 0.000000 0.000000 0.000000 21.815026 0.327544 -12.038775 -2.860624 -10.465917 30.499083 -1.843186 0.476236 -25.554363 -0.090083 -1.935795 5.328276 -2.510853 0.292547 4.593904 1.581320 0.295254 2.207409 3.021317 0.122225 -0.326828 -11.931156 -6.024917 -22.603577 12.055489 -6.662413 12.196667 5.124091 -2.545777 8.305092 0.000000 0.000000 0.000000 42.647335 -28.156392 -42.785242 30.393313 -41.227777 11.668080 13.177659 8.126208 -18.469810 0.000000 0.000000 0.000000 -7.125000 0.000000 0.000000 -14.480404 48.367262 1.227316 0.000000 0.000000 0.000000 -33.809512 -30.768945 42.719693 -22.246516 -33.253827 -6.720832 -19.765261 16.557586 -6.503811 0.000000 0.000000 0.000000 7.125000 0.000000 0.000000 5.140727 23.079433 2.724381
-1.669752 17.715269 -4.650769 1.376218 -8.970195 1.773622 0.000000 0.000000 0.000000 -15.580403 -6.525401 -18.774500 2.220146 9.310215 26.770616 0.075529 3.667256 -7.817416 0.334867 -3.718766 -10.286825 0.000000 0.000000 0.000000 22.011924 -0.487678 -9.176932 -2.839939 -10.431234 30.384871 -1.902539 0.701635 -25.899384 -0.078492 -1.806712 4.971759 -2.479017 0.269999 3.982105 1.602427 0.279681 1.694894 3.026315 0.124689 -0.510939 -11.639318 -5.625902 -23.540249 12.181424 -6.090641 11.776813 5.197366 -2.220680 8.242516 0.000000 0.000000 0.000000 60.863908 -31.249236 -28.396058 31.382039 -42.048925 12.324955 15.658942 6.539353 -20.701372 0.000000 0.000000 0.000000 -7.125000 0.000000 0.000000 -12.961885 50.953371 1.928897 0.000000 0.000000 0.000000 -47.891726 -38.461001 28.481744 -24.201807 -35.376926 -7.823100 -21.120395 14.505828 -4.716267 0.000000 0.000000 0.000000 7.125000 0.000000 0.000000 4.153944 24.925267 2.021530
